<svg width="123" height="44" viewBox="0 0 123 44" fill="none" xmlns="http://www.w3.org/2000/svg">
<path d="M60.9605 29.6744C61.7109 29.6744 62.4374 29.5789 63.14 29.3879C63.8495 29.1969 64.4839 28.9104 65.0433 28.5284C65.6027 28.1395 66.0461 27.6518 66.3735 27.0651C66.7078 26.4716 66.8749 25.7792 66.8749 24.9879C66.8749 24.2443 66.7351 23.6304 66.4554 23.146C66.1825 22.6617 65.8312 22.2729 65.4014 21.9795C64.9785 21.6794 64.5351 21.4474 64.0712 21.2837C63.6073 21.1132 63.1844 20.9767 62.8024 20.8744L60.2442 20.1786C59.9304 20.0967 59.6234 19.9944 59.3233 19.8716C59.0231 19.7488 58.7741 19.5885 58.5763 19.3907C58.3785 19.186 58.2796 18.9234 58.2796 18.6028C58.2796 18.2549 58.3989 17.9547 58.6377 17.7023C58.8833 17.4499 59.1971 17.2589 59.5791 17.1293C59.9679 16.9928 60.3806 16.9315 60.8172 16.9451C61.4858 16.9656 62.0997 17.1634 62.6591 17.5386C63.2185 17.9138 63.58 18.4595 63.7437 19.1758L66.7521 18.6642C66.3974 17.2794 65.7084 16.2186 64.6851 15.4818C63.6619 14.7451 62.3862 14.3665 60.8582 14.346C59.8486 14.3392 58.9276 14.4961 58.0954 14.8167C57.2631 15.1373 56.598 15.6251 56.1 16.28C55.602 16.9349 55.3531 17.7569 55.3531 18.746C55.3531 19.4487 55.469 20.0319 55.701 20.4958C55.9397 20.9529 56.2365 21.3212 56.5912 21.6009C56.9459 21.8806 57.3109 22.0955 57.6861 22.2456C58.0681 22.3956 58.4024 22.5116 58.6889 22.5935L62.5158 23.7191C63.0889 23.8896 63.4709 24.1045 63.6619 24.3637C63.8529 24.6161 63.9484 24.8924 63.9484 25.1925C63.9484 25.6018 63.8086 25.9463 63.5289 26.226C63.256 26.5057 62.9047 26.7172 62.4749 26.8605C62.0451 27.0037 61.6017 27.0753 61.1447 27.0753C60.3261 27.0753 59.5962 26.8468 58.9549 26.3898C58.3137 25.9327 57.8907 25.2812 57.6861 24.4353L54.78 24.8651C54.9301 25.8611 55.2848 26.7206 55.8442 27.4437C56.4104 28.16 57.1301 28.7125 58.0033 29.1014C58.8833 29.4834 59.869 29.6744 60.9605 29.6744Z" fill="#0B0F19"/>
<path d="M69.3286 16.7814H72.1119V14.3256H69.3286V16.7814ZM69.3286 29.3674H72.1119V18.3163H69.3286V29.3674Z" fill="#0B0F19"/>
<path d="M75.3842 29.3674H78.1675V14.3256H75.3842V29.3674Z" fill="#0B0F19"/>
<path d="M81.4398 16.7814H84.2231V14.3256H81.4398V16.7814ZM81.4398 29.3674H84.2231V18.3163H81.4398V29.3674Z" fill="#0B0F19"/>
<path d="M92.1615 29.6744C93.444 29.6744 94.5218 29.3572 95.395 28.7228C96.2681 28.0884 96.8616 27.1845 97.1754 26.0112L94.3308 25.4177C94.1671 25.9498 93.9215 26.3591 93.594 26.6456C93.2666 26.9321 92.7891 27.0753 92.1615 27.0753C91.3224 27.0753 90.688 26.7786 90.2582 26.1851C89.8353 25.5848 89.6238 24.8037 89.6238 23.8418C89.6238 22.9209 89.825 22.1535 90.2275 21.5395C90.6368 20.9187 91.2815 20.6084 92.1615 20.6084C92.6731 20.6084 93.1302 20.7687 93.5326 21.0893C93.9419 21.4099 94.2285 21.8567 94.3922 22.4298L97.1754 21.693C96.9299 20.5538 96.3637 19.6567 95.4768 19.0018C94.5968 18.3401 93.5054 18.0093 92.2024 18.0093C91.0768 18.0093 90.1013 18.2617 89.2759 18.7665C88.4505 19.2713 87.8092 19.9637 87.3522 20.8437C86.9019 21.7237 86.6768 22.7231 86.6768 23.8418C86.6768 24.947 86.8951 25.9395 87.3317 26.8195C87.7683 27.6995 88.3959 28.3953 89.2145 28.907C90.0331 29.4186 91.0154 29.6744 92.1615 29.6744Z" fill="#0B0F19"/>
<path d="M103.895 29.6744C105 29.6744 105.973 29.4288 106.812 28.9377C107.658 28.4397 108.316 27.7541 108.787 26.8809C109.264 26.0009 109.503 24.9879 109.503 23.8418C109.503 22.7026 109.267 21.6964 108.797 20.8232C108.326 19.9432 107.668 19.2542 106.822 18.7563C105.983 18.2583 105.007 18.0093 103.895 18.0093C102.804 18.0093 101.839 18.2549 101 18.746C100.16 19.2372 99.5022 19.9228 99.0246 20.8028C98.5471 21.676 98.3084 22.689 98.3084 23.8418C98.3084 24.9811 98.5403 25.9907 99.0042 26.8707C99.4749 27.7439 100.13 28.4294 100.969 28.9274C101.808 29.4254 102.783 29.6744 103.895 29.6744ZM103.895 27.0753C103.029 27.0753 102.371 26.7854 101.92 26.2056C101.477 25.6189 101.255 24.831 101.255 23.8418C101.255 22.88 101.467 22.1023 101.89 21.5088C102.32 20.9085 102.988 20.6084 103.895 20.6084C104.775 20.6084 105.437 20.9017 105.88 21.4884C106.331 22.075 106.556 22.8595 106.556 23.8418C106.556 24.7901 106.334 25.5677 105.891 26.1749C105.454 26.7752 104.789 27.0753 103.895 27.0753Z" fill="#0B0F19"/>
<path d="M111.733 29.3674H114.557V23.76C114.557 23.071 114.632 22.5184 114.782 22.1023C114.939 21.6862 115.137 21.3724 115.375 21.1609C115.614 20.9426 115.87 20.796 116.143 20.7209C116.416 20.6459 116.671 20.6084 116.91 20.6084C117.504 20.6084 117.961 20.7414 118.281 21.0074C118.609 21.2735 118.844 21.6043 118.987 22C119.131 22.3956 119.216 22.7913 119.243 23.187C119.271 23.5758 119.284 23.8964 119.284 24.1488V29.3674H122.108V23.1665C122.108 22.9823 122.095 22.689 122.067 22.2865C122.04 21.884 121.962 21.4406 121.832 20.9563C121.702 20.4651 121.484 19.9944 121.177 19.5442C120.877 19.0939 120.454 18.7222 119.908 18.4288C119.363 18.1355 118.657 17.9888 117.79 17.9888C116.992 17.9888 116.296 18.1218 115.703 18.3879C115.109 18.6539 114.611 19.0087 114.209 19.4521V18.3163H111.733V29.3674Z" fill="#0B0F19"/>
<path d="M60.6802 29.6489C61.4306 29.6489 62.1571 29.5534 62.8598 29.3624C63.5692 29.1714 64.2036 28.8849 64.763 28.5028C65.3224 28.114 65.7658 27.6262 66.0932 27.0396C66.4275 26.4461 66.5946 25.7537 66.5946 24.9624C66.5946 24.2188 66.4548 23.6049 66.1751 23.1205C65.9022 22.6362 65.5509 22.2473 65.1212 21.954C64.6982 21.6538 64.2548 21.4219 63.7909 21.2582C63.327 21.0876 62.9041 20.9512 62.5221 20.8489L59.9639 20.1531C59.6501 20.0712 59.3432 19.9689 59.043 19.8461C58.7429 19.7233 58.4939 19.563 58.296 19.3652C58.0982 19.1605 57.9993 18.8979 57.9993 18.5773C57.9993 18.2293 58.1187 17.9292 58.3574 17.6768C58.603 17.4244 58.9168 17.2334 59.2988 17.1038C59.6877 16.9673 60.1004 16.9059 60.537 16.9196C61.2055 16.94 61.8194 17.1379 62.3788 17.5131C62.9382 17.8883 63.2998 18.434 63.4635 19.1503L66.4718 18.6387C66.1171 17.2538 65.4281 16.1931 64.4049 15.4563C63.3816 14.7196 62.106 14.341 60.5779 14.3205C59.5683 14.3137 58.6474 14.4706 57.8151 14.7912C56.9829 15.1118 56.3177 15.5996 55.8198 16.2545C55.3218 16.9093 55.0728 17.7314 55.0728 18.7205C55.0728 19.4231 55.1887 20.0064 55.4207 20.4703C55.6594 20.9273 55.9562 21.2957 56.3109 21.5754C56.6656 21.8551 57.0306 22.07 57.4058 22.22C57.7878 22.3701 58.1221 22.4861 58.4086 22.568L62.2356 23.6935C62.8086 23.8641 63.1906 24.079 63.3816 24.3382C63.5726 24.5906 63.6681 24.8669 63.6681 25.167C63.6681 25.5763 63.5283 25.9208 63.2486 26.2005C62.9757 26.4802 62.6244 26.6917 62.1946 26.8349C61.7649 26.9782 61.3215 27.0498 60.8644 27.0498C60.0458 27.0498 59.3159 26.8213 58.6746 26.3642C58.0334 25.9072 57.6105 25.2557 57.4058 24.4098L54.4998 24.8396C54.6498 25.8356 55.0046 26.6951 55.5639 27.4182C56.1301 28.1345 56.8498 28.687 57.723 29.0759C58.603 29.4579 59.5887 29.6489 60.6802 29.6489Z" fill="#0B0F19"/>
<path d="M69.0484 16.7559H71.8316V14.3H69.0484V16.7559ZM69.0484 29.3419H71.8316V18.2907H69.0484V29.3419Z" fill="#0B0F19"/>
<path d="M75.104 29.3419H77.8872V14.3H75.104V29.3419Z" fill="#0B0F19"/>
<path d="M81.1596 16.7559H83.9428V14.3H81.1596V16.7559ZM81.1596 29.3419H83.9428V18.2907H81.1596V29.3419Z" fill="#0B0F19"/>
<path d="M91.8812 29.6489C93.1637 29.6489 94.2415 29.3317 95.1147 28.6973C95.9879 28.0628 96.5814 27.159 96.8952 25.9856L94.0505 25.3921C93.8868 25.9242 93.6412 26.3335 93.3138 26.62C92.9863 26.9066 92.5088 27.0498 91.8812 27.0498C91.0421 27.0498 90.4077 26.7531 89.978 26.1596C89.555 25.5593 89.3435 24.7782 89.3435 23.8163C89.3435 22.8954 89.5448 22.128 89.9473 21.514C90.3566 20.8932 91.0012 20.5828 91.8812 20.5828C92.3928 20.5828 92.8499 20.7431 93.2524 21.0638C93.6617 21.3844 93.9482 21.8312 94.1119 22.4042L96.8952 21.6675C96.6496 20.5283 96.0834 19.6312 95.1966 18.9763C94.3166 18.3146 93.2251 17.9838 91.9221 17.9838C90.7966 17.9838 89.8211 18.2362 88.9956 18.741C88.1702 19.2458 87.529 19.9382 87.0719 20.8182C86.6217 21.6982 86.3966 22.6976 86.3966 23.8163C86.3966 24.9214 86.6148 25.914 87.0514 26.794C87.488 27.674 88.1156 28.3698 88.9342 28.8814C89.7528 29.3931 90.7352 29.6489 91.8812 29.6489Z" fill="#0B0F19"/>
<path d="M103.615 29.6489C104.72 29.6489 105.692 29.4033 106.531 28.9121C107.377 28.4142 108.036 27.7286 108.506 26.8554C108.984 25.9754 109.223 24.9624 109.223 23.8163C109.223 22.6771 108.987 21.6709 108.516 20.7977C108.046 19.9177 107.387 19.2287 106.542 18.7307C105.703 18.2328 104.727 17.9838 103.615 17.9838C102.524 17.9838 101.558 18.2293 100.719 18.7205C99.8802 19.2117 99.2219 19.8973 98.7444 20.7773C98.2669 21.6504 98.0281 22.6635 98.0281 23.8163C98.0281 24.9555 98.26 25.9652 98.7239 26.8452C99.1946 27.7183 99.8495 28.4039 100.689 28.9019C101.528 29.3999 102.503 29.6489 103.615 29.6489ZM103.615 27.0498C102.749 27.0498 102.09 26.7599 101.64 26.18C101.197 25.5934 100.975 24.8055 100.975 23.8163C100.975 22.8545 101.187 22.0768 101.609 21.4833C102.039 20.883 102.708 20.5828 103.615 20.5828C104.495 20.5828 105.157 20.8762 105.6 21.4628C106.05 22.0495 106.276 22.834 106.276 23.8163C106.276 24.7645 106.054 25.5422 105.61 26.1493C105.174 26.7497 104.509 27.0498 103.615 27.0498Z" fill="#0B0F19"/>
<path d="M111.452 29.3419H114.276V23.7345C114.276 23.0455 114.351 22.4929 114.502 22.0768C114.658 21.6607 114.856 21.3469 115.095 21.1354C115.334 20.9171 115.59 20.7704 115.862 20.6954C116.135 20.6204 116.391 20.5828 116.63 20.5828C117.223 20.5828 117.68 20.7159 118.001 20.9819C118.329 21.248 118.564 21.5788 118.707 21.9745C118.85 22.3701 118.936 22.7658 118.963 23.1614C118.99 23.5503 119.004 23.8709 119.004 24.1233V29.3419H121.828V23.141C121.828 22.9568 121.814 22.6635 121.787 22.261C121.76 21.8585 121.681 21.4151 121.552 20.9307C121.422 20.4396 121.204 19.9689 120.897 19.5187C120.597 19.0684 120.174 18.6966 119.628 18.4033C119.082 18.11 118.376 17.9633 117.51 17.9633C116.712 17.9633 116.016 18.0963 115.422 18.3624C114.829 18.6284 114.331 18.9831 113.929 19.4266V18.2907H111.452V29.3419Z" fill="#0B0F19"/>
<path opacity="0.4" fill-rule="evenodd" clip-rule="evenodd" d="M22.5859 0L42.1731 8.52125L47 17.8021L42.8375 30.6075L31.5584 44L12.5018 41.5573L0 26.9058L4.1914 12.1695L22.5859 0ZM23.0925 1.30854L22.5408 10.9257L10.9945 21.582L13.1167 29.1988L37.3373 25.1556L41.2276 9.19809L23.0925 1.30854ZM41.9821 10.3168L45.9216 17.8914L42.1737 29.4212L38.2944 25.4431L41.9821 10.3168ZM37.569 26.1285L14.0016 30.0627L31.2715 42.7915L41.72 30.3852L37.569 26.1285ZM29.5078 42.7312L12.5408 30.2257L1.9351 27.6363L13.011 40.6166L29.5078 42.7312ZM1.17474 26.4235L4.8006 13.6756L9.97181 21.6298L12.047 29.0781L1.17474 26.4235ZM10.528 20.6545L21.5675 10.4661L22.0801 1.53111L5.30894 12.6266L10.528 20.6545Z" fill="url(#paint0_linear_2506_8985)"/>
<path d="M23.6968 18.504H27.1652C27.1151 15.4535 24.6078 13.3474 20.7968 13.3474C17.0442 13.3474 14.2946 15.4201 14.3113 18.5291C14.3029 21.0531 16.0831 22.4989 18.9748 23.1926L20.8385 23.6607C22.7023 24.112 23.7386 24.6468 23.747 25.8002C23.7386 27.0538 22.5518 27.9063 20.7132 27.9063C18.8327 27.9063 17.4788 27.0371 17.3618 25.3238H13.86C13.9519 29.0262 16.6013 30.9401 20.755 30.9401C24.9338 30.9401 27.3909 28.9426 27.3992 25.8085C27.3909 22.9586 25.243 21.4459 22.2677 20.7773L20.7299 20.4096C19.2423 20.0669 17.997 19.5153 18.0221 18.2867C18.0221 17.1835 18.9999 16.3729 20.7717 16.3729C22.5017 16.3729 23.5631 17.1585 23.6968 18.504Z" fill="url(#paint1_linear_2506_8985)"/>
<path d="M32.5504 18.7907H29.3178V30.6977H32.5504V18.7907Z" fill="url(#paint2_linear_2506_8985)"/>
<path d="M31.3455 9.39539H30.1623L28.6885 10.3285V11.4448L30.0518 10.5902H30.0867V15.3489H31.3455V9.39539Z" fill="url(#paint3_linear_2506_8985)"/>
<path d="M32.6703 14.3024H35.5279V15.3489H36.7314V14.3024H37.4697V13.2936H36.7314V9.39539H35.1558L32.6703 13.3111V14.3024ZM35.5511 13.2936H33.9378V13.2471L35.5046 10.7675H35.5511V13.2936Z" fill="url(#paint4_linear_2506_8985)"/>
<defs>
<linearGradient id="paint0_linear_2506_8985" x1="0" y1="22.1053" x2="47" y2="22.1053" gradientUnits="userSpaceOnUse">
<stop stop-color="#6366F1"/>
<stop offset="0.5" stop-color="#8B5CF6"/>
<stop offset="1" stop-color="#D946EF"/>
</linearGradient>
<linearGradient id="paint1_linear_2506_8985" x1="13.86" y1="20.2193" x2="37.4697" y2="20.2193" gradientUnits="userSpaceOnUse">
<stop stop-color="#6366F1"/>
<stop offset="0.5" stop-color="#8B5CF6"/>
<stop offset="1" stop-color="#D946EF"/>
</linearGradient>
<linearGradient id="paint2_linear_2506_8985" x1="13.86" y1="20.2193" x2="37.4697" y2="20.2193" gradientUnits="userSpaceOnUse">
<stop stop-color="#6366F1"/>
<stop offset="0.5" stop-color="#8B5CF6"/>
<stop offset="1" stop-color="#D946EF"/>
</linearGradient>
<linearGradient id="paint3_linear_2506_8985" x1="13.86" y1="20.2193" x2="37.4697" y2="20.2193" gradientUnits="userSpaceOnUse">
<stop stop-color="#6366F1"/>
<stop offset="0.5" stop-color="#8B5CF6"/>
<stop offset="1" stop-color="#D946EF"/>
</linearGradient>
<linearGradient id="paint4_linear_2506_8985" x1="13.86" y1="20.2193" x2="37.4697" y2="20.2193" gradientUnits="userSpaceOnUse">
<stop stop-color="#6366F1"/>
<stop offset="0.5" stop-color="#8B5CF6"/>
<stop offset="1" stop-color="#D946EF"/>
</linearGradient>
</defs>
</svg>
